Run_30002
nRows=4
nColumns=164

# SIMM Motion File Header:
name Run_30002
datacolumns 164
datarows 4
otherdata 1
range 0.12000000 0.15000000
endheader
time	pelvis_tilt	pelvis_list	pelvis_rotation	pelvis_tx	pelvis_ty	pelvis_tz	hip_flexion_r	hip_adduction_r	hip_rotation_r	knee_angle_r	ankle_angle_r	hip_flexion_l	hip_adduction_l	hip_rotation_l	knee_angle_l	ankle_angle_l	lumbar_extension	lumbar_bending	lumbar_rotation	arm_flex_r	arm_add_r	arm_rot_r	elbow_flex_r	pro_sup_r	arm_flex_l	arm_add_l	arm_rot_l	elbow_flex_l	pro_sup_l	subtalar_angle_r	mtp_angle_r	subtalar_angle_l	mtp_angle_l	wrist_flex_r	wrist_dev_r	wrist_flex_l	wrist_dev_l	LASI_tx	LASI_ty	LASI_tz	RASI_tx	RASI_ty	RASI_tz	LPSI_tx	LPSI_ty	LPSI_tz	RPSI_tx	RPSI_ty	RPSI_tz	RTH1_tx	RTH1_ty	RTH1_tz	RTH2_tx	RTH2_ty	RTH2_tz	RTH3_tx	RTH3_ty	RTH3_tz	LTH1_tx	LTH1_ty	LTH1_tz	LTH2_tx	LTH2_ty	LTH2_tz	LTH3_tx	LTH3_ty	LTH3_tz	RTB1_tx	RTB1_ty	RTB1_tz	RTB2_tx	RTB2_ty	RTB2_tz	RTB3_tx	RTB3_ty	RTB3_tz	LTB1_tx	LTB1_ty	LTB1_tz	LTB2_tx	LTB2_ty	LTB2_tz	LTB3_tx	LTB3_ty	LTB3_tz	RCAL_tx	RCAL_ty	RCAL_tz	RTOE_tx	RTOE_ty	RTOE_tz	RMT5_tx	RMT5_ty	RMT5_tz	LCAL_tx	LCAL_ty	LCAL_tz	LTOE_tx	LTOE_ty	LTOE_tz	LMT5_tx	LMT5_ty	LMT5_tz	LACR_tx	LACR_ty	LACR_tz	RACR_tx	RACR_ty	RACR_tz	CLAV_tx	CLAV_ty	CLAV_tz	C7_tx	C7_ty	C7_tz	RUA1_tx	RUA1_ty	RUA1_tz	RUA2_tx	RUA2_ty	RUA2_tz	RUA3_tx	RUA3_ty	RUA3_tz	RLEL_tx	RLEL_ty	RLEL_tz	RMEL_tx	RMEL_ty	RMEL_tz	LUA1_tx	LUA1_ty	LUA1_tz	LUA2_tx	LUA2_ty	LUA2_tz	LUA3_tx	LUA3_ty	LUA3_tz	LLEL_tx	LLEL_ty	LLEL_tz	LMEL_tx	LMEL_ty	LMEL_tz	RFAsuperior_tx	RFAsuperior_ty	RFAsuperior_tz	RFAradius_tx	RFAradius_ty	RFAradius_tz	RFAulna_tx	RFAulna_ty	RFAulna_tz	LFAsuperior_tx	LFAsuperior_ty	LFAsuperior_tz	LFAradius_tx	LFAradius_ty	LFAradius_tz	LFAulna_tx	LFAulna_ty	LFAulna_tz
      0.12000000	      0.82044824	      3.07097085	     -1.46529625	      0.81866573	      1.00617725	     -0.33342218	     -8.27461317	     -1.24367573	      2.91583471	    -60.68939224	    -21.46588825	     19.85616381	      8.07509336	      6.87059782	    -19.64921218	      1.48409562	    -10.78767877	     -6.66049435	      7.47408884	    -17.82423676	    -21.98902597	    -13.22270425	     99.74078349	     74.95676201	    -36.79653263	    -16.98103991	    -12.26929988	     99.26740656	     92.86495434	      0.00000000	      0.00000000	      0.00000000	      0.00000000	      0.00000000	      0.00000000	      0.00000000	      0.00000000	      0.82171338	      1.03713750	     -0.46450681	      0.82156335	      1.02159766	     -0.20223004	      0.65333910	      1.04413118	     -0.39106826	      0.65272300	      1.05587706	     -0.28699037	      0.70254887	      0.83285650	     -0.16252131	      0.76086106	      0.71611459	     -0.18464312	      0.67028634	      0.61336975	     -0.20134073	      0.79298500	      0.83660800	     -0.51138070	      0.90014476	      0.73925832	     -0.48637478	      0.88174282	      0.61019473	     -0.46652382	      0.58651831	      0.39877287	     -0.26516560	      0.52062800	      0.40219305	     -0.19628029	      0.42672767	      0.34324845	     -0.25589799	      0.94517977	      0.37870056	     -0.38199952	      0.90600404	      0.29270631	     -0.44758789	      0.93531176	      0.22300063	     -0.37665855	      0.28576437	      0.40369191	     -0.25846821	      0.27560721	      0.17699124	     -0.27011347	      0.24389713	      0.22541097	     -0.19064282	      0.82791091	      0.09175227	     -0.36851981	      1.05409578	      0.08549495	     -0.34243380	      1.01070254	      0.05934011	     -0.43433036	      0.77988341	      1.49033256	     -0.51949515	      0.81272433	      1.51402515	     -0.19526087	      0.84944974	      1.43955890	     -0.33062185	      0.73404521	      1.52128368	     -0.34831009	      0.76989313	      1.44679653	     -0.10101402	      0.69842242	      1.37718197	     -0.10961043	      0.73617119	      1.32908466	     -0.06154651	      0.70642171	      1.23030383	     -0.01881420	      0.67819549	      1.21053553	     -0.09287809	      0.69668162	      1.43924867	     -0.58776961	      0.63402946	      1.38390289	     -0.53258470	      0.59260553	      1.33450601	     -0.58708891	      0.55073391	      1.25985511	     -0.61541901	      0.55134761	      1.25232599	     -0.53737649	      0.81007618	      1.19949266	     -0.02544158	      0.95020898	      1.15814861	     -0.08399752	      0.92427690	      1.09552365	     -0.05865204	      0.63744206	      1.19029054	     -0.62942881	      0.77035823	      1.09905541	     -0.57990158	      0.72384608	      1.05084084	     -0.60439417
      0.13000000	      1.09604627	      3.71196553	     -0.78004730	      0.81648372	      0.99900817	     -0.33472328	     -6.07253736	     -1.89498768	      2.17507364	    -65.82209758	    -19.76972220	     20.40210444	      9.32874401	      6.49968110	    -24.25069367	      3.67140878	    -11.55831144	     -7.49436735	      6.01182197	    -17.95886857	    -21.62369961	    -12.95628348	     99.14280461	     74.82626643	    -34.91288271	    -17.93935664	    -11.49259321	     99.17375696	     92.33904542	      0.00000000	      0.00000000	      0.00000000	      0.00000000	      0.00000000	      0.00000000	      0.00000000	      0.00000000	      0.81958001	      1.03070073	     -0.46636953	      0.82110234	      1.01353553	     -0.20293865	      0.64915147	      1.03544785	     -0.38932951	      0.65232841	      1.04705614	     -0.28757711	      0.70725562	      0.82019416	     -0.16110353	      0.76739974	      0.70768283	     -0.18411922	      0.68143712	      0.60136877	     -0.20136504	      0.79032965	      0.83101464	     -0.51269816	      0.89791301	      0.73105402	     -0.48531078	      0.87922993	      0.60269675	     -0.46536877	      0.60195184	      0.39451874	     -0.26682295	      0.53473231	      0.39913158	     -0.19617141	      0.43754961	      0.34384124	     -0.25363318	      0.93973770	      0.37433699	     -0.37991890	      0.89696266	      0.28865751	     -0.44445908	      0.92024381	      0.21899618	     -0.37401865	      0.29996309	      0.41030761	     -0.26020270	      0.28390999	      0.18456416	     -0.26688238	      0.25448372	      0.23531388	     -0.18724480	      0.80080654	      0.09381297	     -0.36744397	      1.02819199	      0.07854117	     -0.34102909	      0.98285710	      0.05413323	     -0.43859911	      0.78232463	      1.48103206	     -0.52156813	      0.81209149	      1.50682512	     -0.19610123	      0.84970295	      1.43148871	     -0.33142735	      0.73356437	      1.51391129	     -0.35059840	      0.76749930	      1.43932507	     -0.10219581	      0.69539779	      1.37053948	     -0.11138164	      0.73248133	      1.32168472	     -0.06297122	      0.70045186	      1.22399700	     -0.02059109	      0.67264376	      1.20447914	     -0.09466551	      0.70055860	      1.42761119	     -0.59073267	      0.63616753	      1.37177050	     -0.53862059	      0.59888866	      1.32027669	     -0.59406626	      0.55894262	      1.24504462	     -0.62166922	      0.55849970	      1.23788210	     -0.54441530	      0.80364764	      1.19136897	     -0.02592287	      0.94360341	      1.14714177	     -0.08231396	      0.91612998	      1.08506046	     -0.05717498	      0.64767527	      1.17729464	     -0.63390155	      0.78128961	      1.08974893	     -0.58079084	      0.73606980	      1.04042845	     -0.60610573
      0.14000000	      1.19991833	      4.41412853	     -0.13869254	      0.81411857	      0.99159389	     -0.33640507	     -3.64240413	     -2.70931854	      1.60479486	    -70.68987753	    -17.96642889	     20.96618375	     10.67310342	      6.23741491	    -28.71965635	      6.22390482	    -12.11234081	     -8.32962006	      4.63491372	    -18.22634670	    -21.27437485	    -12.76985602	     98.36925071	     74.75864194	    -32.79185320	    -18.89602784	    -10.48936596	     98.81281701	     91.70393718	      0.00000000	      0.00000000	      0.00000000	      0.00000000	      0.00000000	      0.00000000	      0.00000000	      0.00000000	      0.81691623	      1.02410516	     -0.46850677	      0.82044159	      1.00512862	     -0.20380264	      0.64527344	      1.02777129	     -0.38881688	      0.65173369	      1.03789095	     -0.28831936	      0.71195713	      0.80807661	     -0.16000889	      0.77441830	      0.69997597	     -0.18359980	      0.69310815	      0.58992118	     -0.20263811	      0.78707992	      0.82557315	     -0.51315558	      0.89473048	      0.72286188	     -0.48524918	      0.87676780	      0.59603267	     -0.46419346	      0.61826359	      0.39049554	     -0.26825408	      0.54987246	      0.39587945	     -0.19588631	      0.44986938	      0.34400645	     -0.25163136	      0.93223195	      0.37044968	     -0.37787854	      0.88565539	      0.28573660	     -0.44185653	      0.90316935	      0.21581369	     -0.37195329	      0.31491144	      0.41572454	     -0.26211624	      0.29483242	      0.19005769	     -0.26280735	      0.26777840	      0.24347145	     -0.18411572	      0.77281785	      0.09531152	     -0.36673636	      1.00108189	      0.07372773	     -0.34006295	      0.95406050	      0.05063495	     -0.44003090	      0.78441899	      1.47223419	     -0.52376291	      0.81109265	      1.50012325	     -0.19651351	      0.84993097	      1.42370859	     -0.33192361	      0.73311022	      1.50705102	     -0.35289964	      0.76495964	      1.43208991	     -0.10317453	      0.69210010	      1.36377392	     -0.11322272	      0.72856296	      1.31429573	     -0.06449631	      0.69407105	      1.21770804	     -0.02263141	      0.66665416	      1.19844880	     -0.09669997	      0.70451422	      1.41512170	     -0.59392323	      0.63843388	      1.35886233	     -0.54493962	      0.60555064	      1.30532837	     -0.60102608	      0.56790192	      1.22963157	     -0.62786262	      0.56529788	      1.22270013	     -0.55123119	      0.79670300	      1.18297766	     -0.02621530	      0.93628993	      1.13546066	     -0.08039839	      0.90711446	      1.07409363	     -0.05543001	      0.65862176	      1.16367074	     -0.63827679	      0.79273691	      1.07993512	     -0.58144323	      0.74900527	      1.02948998	     -0.60742909
      0.15000000	      1.13803074	      5.17526182	      0.40028710	      0.81151052	      0.98434207	     -0.33844073	     -0.88892790	     -3.69328730	      1.25410239	    -75.23170000	    -15.83610056	     21.37923396	     12.08138230	      5.99810943	    -32.79617231	      9.19318350	    -12.44324868	     -9.18515392	      3.39196325	    -18.59377539	    -20.91545245	    -12.64990128	     97.24694301	     74.74633865	    -30.26800185	    -19.79565333	     -9.17719518	     97.99236708	     91.04586008	      0.00000000	      0.00000000	      0.00000000	      0.00000000	      0.00000000	      0.00000000	      0.00000000	      0.00000000	      0.81373704	      1.01744387	     -0.47095526	      0.81934381	      0.99648721	     -0.20462843	      0.64190647	      1.02153069	     -0.38990848	      0.65070161	      1.02849213	     -0.28902362	      0.71665683	      0.79759335	     -0.15968397	      0.78197036	      0.69350004	     -0.18291111	      0.70547313	      0.57988906	     -0.20547555	      0.78293597	      0.82034521	     -0.51267920	      0.89022407	      0.71520721	     -0.48633721	      0.87393555	      0.59049277	     -0.46322881	      0.63593968	      0.38689490	     -0.26934235	      0.56660389	      0.39265120	     -0.19539891	      0.46462879	      0.34358974	     -0.25021270	      0.92171807	      0.36639588	     -0.37628131	      0.87049801	      0.28396290	     -0.44002310	      0.88324044	      0.21324991	     -0.37070388	      0.33088958	      0.41924702	     -0.26420237	      0.30997556	      0.19277902	     -0.25830941	      0.28517359	      0.24885452	     -0.18139512	      0.74373460	      0.09612828	     -0.36646053	      0.97244024	      0.07147633	     -0.33963910	      0.92385096	      0.04888767	     -0.43806639	      0.78588629	      1.46431905	     -0.52610493	      0.80952492	      1.49422034	     -0.19653626	      0.85005907	      1.41653196	     -0.33200110	      0.73288024	      1.50108706	     -0.35511895	      0.76210702	      1.42542535	     -0.10407196	      0.68844746	      1.35718476	     -0.11529815	      0.72428724	      1.30734529	     -0.06621005	      0.68717705	      1.21165568	     -0.02511615	      0.66020954	      1.19262000	     -0.09918091	      0.70878571	      1.40164255	     -0.59750824	      0.64112019	      1.34488755	     -0.55174353	      0.61308313	      1.28950602	     -0.60799074	      0.57819651	      1.21345846	     -0.63396438	      0.57210632	      1.20653860	     -0.55776005	      0.78898332	      1.17425814	     -0.02628925	      0.92800365	      1.12291995	     -0.07812424	      0.89679989	      1.06252910	     -0.05336056	      0.67087803	      1.14940404	     -0.64231114	      0.80507586	      1.06949545	     -0.58167305	      0.76309437	      1.01793977	     -0.60826085
